<svg xmlns="http://www.w3.org/2000/svg" viewBox="0 0 720 520" role="img" aria-labelledby="title desc">
  <title id="title">Видеонаблюдение</title>
  <desc id="desc">Иллюстрация камеры видеонаблюдения в спокойной изумрудной палитре.</desc>
  <defs>
    <linearGradient id="bg" x1="0" y1="0" x2="1" y2="1">
      <stop offset="0" stop-color="#f8f5ea"/>
      <stop offset="1" stop-color="#d9e9de"/>
    </linearGradient>
    <linearGradient id="emerald" x1="0" y1="0" x2="1" y2="1">
      <stop offset="0" stop-color="#0f7f5f"/>
      <stop offset="1" stop-color="#0a3329"/>
    </linearGradient>
    <filter id="shadow" x="-20%" y="-20%" width="140%" height="140%">
      <feDropShadow dx="0" dy="22" stdDeviation="24" flood-color="#08231c" flood-opacity=".18"/>
    </filter>
  </defs>
  <rect width="720" height="520" rx="42" fill="url(#bg)"/>
  <path d="M0 404 C150 350 223 430 344 378 C477 320 566 330 720 260 V520 H0Z" fill="#0b6f52" opacity=".10"/>
  <g stroke="#0b6f52" stroke-opacity=".13" stroke-width="1">
    <path d="M90 0v520M180 0v520M270 0v520M360 0v520M450 0v520M540 0v520M630 0v520"/>
    <path d="M0 86h720M0 172h720M0 258h720M0 344h720M0 430h720"/>
  </g>
  <g filter="url(#shadow)">
    <rect x="156" y="154" width="318" height="132" rx="34" fill="url(#emerald)"/>
    <rect x="184" y="182" width="168" height="76" rx="22" fill="#ffffff" opacity=".10"/>
    <circle cx="416" cy="220" r="37" fill="#f8f5ea"/>
    <circle cx="416" cy="220" r="18" fill="#0b6f52"/>
    <path d="M474 190 574 153c23-9 48 8 48 32v70c0 24-25 41-48 32l-100-37Z" fill="#173f32"/>
    <path d="M512 207h65M512 233h46" stroke="#f8f5ea" stroke-width="12" stroke-linecap="round" opacity=".82"/>
    <path d="M238 286h126v58c0 28-23 51-51 51h-24c-28 0-51-23-51-51Z" fill="#0d3027"/>
    <path d="M282 332h38" stroke="#f8f5ea" stroke-width="12" stroke-linecap="round" opacity=".75"/>
  </g>
  <g fill="none" stroke="#c69a4a" stroke-width="5" stroke-linecap="round" opacity=".75">
    <path d="M116 136c24-30 58-48 101-54"/>
    <path d="M575 370c-28 28-62 44-103 47"/>
  </g>
</svg>
