<svg xmlns="http://www.w3.org/2000/svg" viewBox="0 0 720 520" role="img" aria-labelledby="title desc">
  <title id="title">Контроль доступа</title>
  <desc id="desc">Иллюстрация двери, считывателя и контрольной карты.</desc>
  <defs>
    <linearGradient id="bg" x1="0" y1="0" x2="1" y2="1">
      <stop offset="0" stop-color="#eef5ec"/>
      <stop offset="1" stop-color="#f8f5ea"/>
    </linearGradient>
    <linearGradient id="door" x1="0" y1="0" x2="0" y2="1">
      <stop offset="0" stop-color="#16483a"/>
      <stop offset="1" stop-color="#081f19"/>
    </linearGradient>
    <filter id="shadow" x="-20%" y="-20%" width="140%" height="140%">
      <feDropShadow dx="0" dy="22" stdDeviation="24" flood-color="#08231c" flood-opacity=".18"/>
    </filter>
  </defs>
  <rect width="720" height="520" rx="42" fill="url(#bg)"/>
  <circle cx="590" cy="96" r="86" fill="#0b6f52" opacity=".10"/>
  <circle cx="132" cy="410" r="112" fill="#c69a4a" opacity=".12"/>
  <g filter="url(#shadow)">
    <rect x="170" y="92" width="220" height="342" rx="32" fill="url(#door)"/>
    <rect x="204" y="130" width="152" height="266" rx="22" fill="#ffffff" opacity=".08"/>
    <circle cx="338" cy="262" r="12" fill="#c69a4a"/>
    <rect x="418" y="166" width="128" height="188" rx="28" fill="#f8f5ea"/>
    <rect x="446" y="196" width="72" height="72" rx="20" fill="#0b6f52"/>
    <path d="M465 231h34" stroke="#f8f5ea" stroke-width="8" stroke-linecap="round"/>
    <path d="M452 300h80M452 324h58" stroke="#0d3027" stroke-width="10" stroke-linecap="round" opacity=".72"/>
    <rect x="448" y="356" width="160" height="78" rx="22" fill="#0b6f52"/>
    <path d="M478 386h78M478 408h48" stroke="#f8f5ea" stroke-width="9" stroke-linecap="round" opacity=".82"/>
  </g>
  <g stroke="#0b6f52" stroke-width="4" stroke-linecap="round" opacity=".28">
    <path d="M110 180h76"/>
    <path d="M560 116h52"/>
    <path d="M95 222h46"/>
  </g>
</svg>
