<svg xmlns="http://www.w3.org/2000/svg" viewBox="0 0 720 520" role="img" aria-labelledby="title desc">
  <title id="title">Автоматизация парковки</title>
  <desc id="desc">Иллюстрация шлагбаума, автомобиля и зоны въезда.</desc>
  <defs>
    <linearGradient id="bg" x1="0" y1="0" x2="1" y2="1">
      <stop offset="0" stop-color="#f8f5ea"/>
      <stop offset="1" stop-color="#e1eadf"/>
    </linearGradient>
    <filter id="shadow" x="-20%" y="-20%" width="140%" height="140%">
      <feDropShadow dx="0" dy="22" stdDeviation="24" flood-color="#08231c" flood-opacity=".18"/>
    </filter>
  </defs>
  <rect width="720" height="520" rx="42" fill="url(#bg)"/>
  <path d="M0 384h720v136H0Z" fill="#0d3027"/>
  <path d="M48 384h624" stroke="#f8f5ea" stroke-width="5" stroke-dasharray="28 30" opacity=".55"/>
  <g filter="url(#shadow)">
    <rect x="94" y="246" width="250" height="92" rx="30" fill="#0b6f52"/>
    <path d="M138 246l42-58h86l50 58Z" fill="#16483a"/>
    <circle cx="158" cy="344" r="28" fill="#081f19"/>
    <circle cx="282" cy="344" r="28" fill="#081f19"/>
    <rect x="134" y="274" width="76" height="28" rx="12" fill="#f8f5ea" opacity=".88"/>
    <rect x="230" y="274" width="58" height="28" rx="12" fill="#f8f5ea" opacity=".78"/>
    <rect x="430" y="172" width="74" height="228" rx="28" fill="#173f32"/>
    <circle cx="467" cy="218" r="16" fill="#c69a4a"/>
    <rect x="458" y="242" width="18" height="116" rx="9" fill="#f8f5ea" opacity=".72"/>
    <path d="M468 180 620 118" stroke="#0b6f52" stroke-width="24" stroke-linecap="round"/>
    <path d="M506 164 544 148M582 133 612 121" stroke="#f8f5ea" stroke-width="10" stroke-linecap="round" opacity=".9"/>
  </g>
  <path d="M86 132h96M86 168h58M548 300h86" stroke="#0b6f52" stroke-width="7" stroke-linecap="round" opacity=".32"/>
</svg>
