<svg xmlns="http://www.w3.org/2000/svg" viewBox="0 0 720 520" role="img" aria-labelledby="title desc">
  <title id="title">Диспетчеризация и мониторинг</title>
  <desc id="desc">Иллюстрация операторского монитора с несколькими зонами контроля.</desc>
  <defs>
    <linearGradient id="bg" x1="0" y1="0" x2="1" y2="1">
      <stop offset="0" stop-color="#102820"/>
      <stop offset="1" stop-color="#071611"/>
    </linearGradient>
    <linearGradient id="screen" x1="0" y1="0" x2="1" y2="1">
      <stop offset="0" stop-color="#1e5d49"/>
      <stop offset="1" stop-color="#0a2a22"/>
    </linearGradient>
    <filter id="shadow" x="-20%" y="-20%" width="140%" height="140%">
      <feDropShadow dx="0" dy="24" stdDeviation="28" flood-color="#000" flood-opacity=".26"/>
    </filter>
  </defs>
  <rect width="720" height="520" rx="42" fill="url(#bg)"/>
  <circle cx="604" cy="112" r="92" fill="#5bc69b" opacity=".14"/>
  <circle cx="112" cy="404" r="96" fill="#c69a4a" opacity=".12"/>
  <g filter="url(#shadow)">
    <rect x="102" y="92" width="516" height="304" rx="34" fill="#f8f5ea"/>
    <rect x="126" y="118" width="468" height="238" rx="22" fill="url(#screen)"/>
    <rect x="152" y="146" width="184" height="80" rx="18" fill="#f8f5ea" opacity=".12"/>
    <rect x="360" y="146" width="206" height="80" rx="18" fill="#f8f5ea" opacity=".10"/>
    <rect x="152" y="250" width="126" height="78" rx="18" fill="#f8f5ea" opacity=".10"/>
    <rect x="302" y="250" width="126" height="78" rx="18" fill="#f8f5ea" opacity=".12"/>
    <rect x="452" y="250" width="114" height="78" rx="18" fill="#f8f5ea" opacity=".10"/>
    <path d="M178 187h82M386 187h122M178 290h62M328 290h54M478 290h46" stroke="#f8f5ea" stroke-width="10" stroke-linecap="round" opacity=".75"/>
    <circle cx="540" cy="316" r="12" fill="#c69a4a"/>
    <path d="M312 396h96l22 56H290Z" fill="#173f32"/>
    <rect x="238" y="450" width="244" height="24" rx="12" fill="#0b6f52"/>
  </g>
  <path d="M84 70h84M548 426h76" stroke="#5bc69b" stroke-width="6" stroke-linecap="round" opacity=".36"/>
</svg>
